<svg id="Layer_1" data-name="Layer 1" xmlns="http://www.w3.org/2000/svg" viewBox="0 0 34.39 34.33"><defs><style>.cls-1{fill:#fff;}</style></defs><path class="cls-1" d="M13.05,17.35c0-1,0-1.91,0-2.83,0-.07.18-.18.29-.19.42,0,.84,0,1.26,0,.24,0,.32-.1.32-.34A25.39,25.39,0,0,1,15,11.36a3,3,0,0,1,3.07-2.89c1.07-.07,2.15,0,3.26,0v3h-.41c-.54,0-1.08,0-1.61.07a.66.66,0,0,0-.7.69c-.06.63,0,1.26-.06,1.89,0,.23.16.22.31.23h2.5c-.06.6-.12,1.17-.18,1.73,0,.33-.09.65-.1,1s-.1.32-.34.32c-.6,0-1.21,0-1.82,0-.3,0-.38.09-.38.38,0,2.7,0,5.41,0,8.11v.48H14.93V17.88c0-.53,0-.53-.53-.53S13.54,17.35,13.05,17.35Z"/><path class="cls-1" d="M17.21,33.75A16.38,16.38,0,1,1,33.58,17.37,16.4,16.4,0,0,1,17.21,33.75ZM17.21,2A15.38,15.38,0,1,0,32.58,17.37,15.4,15.4,0,0,0,17.21,2Z"/></svg>