<svg id="Layer_1" data-name="Layer 1" xmlns="http://www.w3.org/2000/svg" viewBox="0 0 36.28 34.85"><defs><style>.cls-1{fill:#fff;}</style></defs><path class="cls-1" d="M25.43,17.47l-.06,3a5.13,5.13,0,0,1-.44,2.07,3.73,3.73,0,0,1-2.48,2.08,5.16,5.16,0,0,1-1.41.2c-1.69,0-3.39.05-5.09.05a10.29,10.29,0,0,1-1.84-.13,3.87,3.87,0,0,1-3.3-3.38,16,16,0,0,1-.11-1.83c0-1.45,0-2.9,0-4.35a8.94,8.94,0,0,1,.17-1.86,3.8,3.8,0,0,1,2-2.64,4.81,4.81,0,0,1,1.9-.48c1.93-.1,3.86-.07,5.8,0a7.26,7.26,0,0,1,1.85.22,3.77,3.77,0,0,1,2.77,2.84,5.74,5.74,0,0,1,.18,1.3Zm-7.29-6H15.87a7.88,7.88,0,0,0-1.68.13,2.5,2.5,0,0,0-1.67,1.11,3.15,3.15,0,0,0-.46,1.58C12,15,12,15.75,12,16.49c0,.94,0,1.89,0,2.84q0,.87.09,1.74a2.6,2.6,0,0,0,.43,1.22,2.5,2.5,0,0,0,1.64,1.08,7.74,7.74,0,0,0,1.52.13c1.13,0,2.26,0,3.4,0,.78,0,1.57,0,2.36-.08A2.83,2.83,0,0,0,22.89,23,2.46,2.46,0,0,0,24,21.12c.07-.64.1-1.28.11-1.92q0-1.71,0-3.42A17.84,17.84,0,0,0,24,13.85a2.48,2.48,0,0,0-2.08-2.26,9.18,9.18,0,0,0-1.38-.12C19.72,11.45,18.93,11.46,18.14,11.46Z"/><path class="cls-1" d="M21.82,17.48a3.78,3.78,0,1,1-3.74-3.78A3.77,3.77,0,0,1,21.82,17.48Zm-1.31,0A2.46,2.46,0,1,0,18,19.94,2.47,2.47,0,0,0,20.51,17.48Z"/><path class="cls-1" d="M21.09,13.56a.88.88,0,1,1,.87.88A.87.87,0,0,1,21.09,13.56Z"/><path class="cls-1" d="M18.06,33.85A16.37,16.37,0,1,1,34.43,17.48,16.39,16.39,0,0,1,18.06,33.85Zm0-31.74A15.37,15.37,0,1,0,33.43,17.48,15.39,15.39,0,0,0,18.06,2.11Z"/></svg>