<svg xmlns="http://www.w3.org/2000/svg" viewBox="0 0 119.77 33.75"><defs><style>.cls-1{fill:#fff;}</style></defs><g id="Layer_2" data-name="Layer 2"><g id="Layer_1-2" data-name="Layer 1"><path class="cls-1" d="M12.21,17.35c0-1,0-1.91,0-2.83,0-.07.18-.18.28-.19.42,0,.84,0,1.27,0,.24,0,.31-.1.32-.34a25.39,25.39,0,0,1,.08-2.62,3,3,0,0,1,3.07-2.89c1.07-.07,2.15,0,3.25,0v3h-.4c-.54,0-1.08,0-1.61.07a.67.67,0,0,0-.71.69c-.05.63,0,1.26-.05,1.89,0,.23.16.22.31.23h2.49c-.06.6-.11,1.17-.17,1.73,0,.33-.09.65-.1,1s-.1.32-.34.32c-.61,0-1.22,0-1.83,0-.29,0-.37.09-.37.38,0,2.7,0,5.41,0,8.11v.48H14.09V17.88c0-.53,0-.53-.52-.53S12.7,17.35,12.21,17.35Z"/><path class="cls-1" d="M16.37,33.75A16.38,16.38,0,1,1,32.75,17.37,16.4,16.4,0,0,1,16.37,33.75ZM16.37,2A15.38,15.38,0,1,0,31.75,17.37,15.39,15.39,0,0,0,16.37,2Z"/><path class="cls-1" d="M51.77,21.48a6.7,6.7,0,0,0,4.88-1.38,3.39,3.39,0,0,1-3.09-2.29l.74,0a3,3,0,0,0,.73-.11,3.35,3.35,0,0,1-1.9-1.18,3.27,3.27,0,0,1-.74-2.13,3.23,3.23,0,0,0,1.48.41,3.35,3.35,0,0,1-1-4.43,9.52,9.52,0,0,0,6.86,3.48c0-.12,0-.22,0-.32a3.25,3.25,0,0,1,.81-2.65,3.14,3.14,0,0,1,2-1.08,3.25,3.25,0,0,1,2.85.92.21.21,0,0,0,.22.06,6.79,6.79,0,0,0,1.93-.75l0,0a3.3,3.3,0,0,1-.55,1,3.41,3.41,0,0,1-.87.78,6.11,6.11,0,0,0,1.86-.5.11.11,0,0,1,0,.05A6.49,6.49,0,0,1,66.35,13a.14.14,0,0,0-.06.12,8.47,8.47,0,0,1-.07,1.59,9.85,9.85,0,0,1-1.48,4,9.29,9.29,0,0,1-2.61,2.69,8.94,8.94,0,0,1-3,1.31,10,10,0,0,1-1.72.23,10.13,10.13,0,0,1-1.74-.06,9.46,9.46,0,0,1-3.84-1.39Z"/><path class="cls-1" d="M59.86,32.75A16.38,16.38,0,1,1,76.23,16.37,16.4,16.4,0,0,1,59.86,32.75ZM59.86,1A15.38,15.38,0,1,0,75.23,16.37,15.4,15.4,0,0,0,59.86,1Z"/><path class="cls-1" d="M110.77,16.36c0,1,0,2-.07,3a4.9,4.9,0,0,1-.43,2.07,3.72,3.72,0,0,1-2.48,2.08,5.59,5.59,0,0,1-1.41.21c-1.69,0-3.39,0-5.09,0a10.28,10.28,0,0,1-1.84-.12,3.89,3.89,0,0,1-3.3-3.39A15.74,15.74,0,0,1,96,18.41c0-1.45,0-2.9,0-4.35a9,9,0,0,1,.17-1.87,3.79,3.79,0,0,1,2-2.63,4.61,4.61,0,0,1,1.9-.49C102,9,104,9,105.91,9a7.25,7.25,0,0,1,1.85.21,3.77,3.77,0,0,1,2.77,2.84,5.82,5.82,0,0,1,.18,1.31Zm-7.29-6h-2.27a9.44,9.44,0,0,0-1.68.13,2.48,2.48,0,0,0-1.67,1.12,3.12,3.12,0,0,0-.46,1.57c0,.74-.05,1.47-.06,2.21,0,.95,0,1.89,0,2.84,0,.58.05,1.16.1,1.74a2.56,2.56,0,0,0,.43,1.22,2.47,2.47,0,0,0,1.64,1.08,7,7,0,0,0,1.52.13c1.13,0,2.26,0,3.39,0,.79,0,1.58,0,2.37-.08a2.74,2.74,0,0,0,1.43-.47A2.45,2.45,0,0,0,109.31,20c.07-.63.1-1.28.11-1.91,0-1.14,0-2.29,0-3.43a17.51,17.51,0,0,0-.11-1.92,2.46,2.46,0,0,0-2.09-2.26,7.85,7.85,0,0,0-1.37-.13C105.06,10.34,104.27,10.35,103.48,10.35Z"/><path class="cls-1" d="M107.16,16.38a3.78,3.78,0,1,1-3.74-3.78A3.78,3.78,0,0,1,107.16,16.38Zm-1.31,0a2.46,2.46,0,1,0-2.47,2.47A2.46,2.46,0,0,0,105.85,16.37Z"/><path class="cls-1" d="M106.43,12.45a.88.88,0,1,1,1.76,0,.88.88,0,1,1-1.76,0Z"/><path class="cls-1" d="M103.4,32.75a16.38,16.38,0,1,1,16.37-16.38A16.4,16.4,0,0,1,103.4,32.75ZM103.4,1a15.38,15.38,0,1,0,15.37,15.37A15.4,15.4,0,0,0,103.4,1Z"/></g></g></svg>