<svg id="Layer_1" data-name="Layer 1" xmlns="http://www.w3.org/2000/svg" viewBox="0 0 34.58 34.48"><defs><style>.cls-1{fill:#fff;}</style></defs><path class="cls-1" d="M9.14,22.21A6.7,6.7,0,0,0,14,20.83a3.39,3.39,0,0,1-3.08-2.29l.74,0a2.59,2.59,0,0,0,.73-.12,3.35,3.35,0,0,1-1.91-1.18,3.29,3.29,0,0,1-.73-2.12,3.35,3.35,0,0,0,1.48.41,3.33,3.33,0,0,1-1.37-2,3.26,3.26,0,0,1,.36-2.4,9.55,9.55,0,0,0,6.86,3.48c0-.12,0-.22-.05-.32a3.25,3.25,0,0,1,.81-2.65,3.2,3.2,0,0,1,2-1.09,3.29,3.29,0,0,1,2.85.93.21.21,0,0,0,.22.06,6.79,6.79,0,0,0,1.93-.75l0,0a3.24,3.24,0,0,1-.55,1,3.58,3.58,0,0,1-.87.78,6.41,6.41,0,0,0,1.86-.5.11.11,0,0,1,0,.05,6.67,6.67,0,0,1-1.56,1.62.13.13,0,0,0-.06.12,8.47,8.47,0,0,1-.07,1.59,10,10,0,0,1-1.48,4,9.13,9.13,0,0,1-2.61,2.68,9,9,0,0,1-3,1.32,11.1,11.1,0,0,1-1.72.23A9.32,9.32,0,0,1,13,23.61a9.45,9.45,0,0,1-3.83-1.38Z"/><path class="cls-1" d="M17.22,33.48A16.38,16.38,0,1,1,33.6,17.1,16.4,16.4,0,0,1,17.22,33.48Zm0-31.75A15.38,15.38,0,1,0,32.6,17.1,15.39,15.39,0,0,0,17.22,1.73Z"/></svg>